<!DOCTYPE svg PUBLIC "-//W3C//DTD SVG 20010904//EN" "http://www.w3.org/TR/2001/REC-SVG-20010904/DTD/svg10.dtd">
<svg version="1.0" xmlns="http://www.w3.org/2000/svg" width="622px" height="291px" viewBox="0 0 6220 2910" preserveAspectRatio="xMidYMid meet">
<g id="layer101" fill="#000000" stroke="none">
 <path d="M2235 2534 c-92 -24 -158 -73 -198 -149 -19 -34 -22 -56 -22 -150 0 -99 3 -116 27 -168 36 -77 135 -180 205 -213 30 -14 85 -32 121 -40 78 -16 286 -18 447 -5 61 6 149 13 198 16 l87 6 0 -28 c0 -84 -76 -271 -150 -369 -153 -203 -411 -253 -759 -148 -126 38 -125 25 10 -108 153 -151 223 -274 236 -412 8 -88 -8 -126 -51 -126 -61 0 -180 81 -250 170 -108 139 -185 317 -207 484 -17 132 -8 316 20 391 48 129 19 137 -51 15 -65 -116 -177 -218 -265 -245 -23 -6 -23 -5 -23 82 0 236 -60 486 -155 650 -42 70 -131 155 -200 189 -155 76 -347 8 -432 -153 -42 -79 -56 -153 -51 -261 4 -82 8 -99 46 -174 34 -71 57 -100 144 -185 81 -78 120 -108 178 -136 112 -54 218 -80 330 -81 l95 -1 -7 -125 c-10 -191 -27 -335 -63 -560 -39 -243 -61 -440 -51 -465 16 -42 33 13 50 155 10 80 30 222 46 315 33 195 45 305 60 529 6 88 13 163 15 167 3 4 18 10 34 14 37 8 157 91 196 136 l30 34 0 -130 c1 -241 51 -409 181 -606 95 -144 268 -270 350 -255 51 10 74 53 74 136 0 140 -68 285 -196 419 l-83 87 72 -19 c105 -28 312 -35 397 -13 185 48 309 156 401 351 39 83 69 183 69 229 0 36 20 41 106 28 143 -22 260 -81 362 -182 54 -53 80 -102 107 -198 18 -64 37 -84 58 -63 6 6 15 53 18 104 8 106 34 185 81 241 85 104 242 86 365 -41 53 -55 143 -216 143 -255 0 -19 26 -42 38 -34 5 3 13 43 16 88 4 46 30 202 58 348 28 146 53 277 55 292 3 15 2 35 -1 45 -20 52 -57 -74 -116 -401 -16 -93 -30 -182 -30 -197 0 -43 -12 -35 -45 28 -39 75 -136 173 -205 208 -77 39 -163 45 -224 15 -86 -41 -157 -150 -173 -266 l-6 -43 -24 49 c-15 30 -56 79 -104 125 -110 103 -224 159 -363 180 -54 8 -100 16 -102 18 -2 2 -8 38 -14 79 -14 112 -48 187 -128 287 -84 104 -281 228 -432 271 -73 21 -295 37 -345 24z m299 -60 c141 -32 340 -144 431 -245 79 -88 125 -190 139 -311 l6 -48 -63 0 c-34 0 -143 -7 -242 -15 -296 -24 -423 -15 -540 39 -120 54 -205 181 -213 317 -9 156 60 255 196 279 61 12 196 4 286 -16z m-1287 -145 c109 -52 188 -164 253 -357 39 -116 58 -229 66 -400 l7 -142 -90 0 c-189 0 -365 72 -498 205 -133 131 -182 243 -172 389 9 146 73 258 174 307 95 46 161 45 260 -2z"/>
 <path d="M4966 2241 c-3 -5 12 -30 33 -56 22 -26 47 -62 57 -80 l17 -32 -42 -53 c-55 -70 -76 -109 -63 -122 7 -7 30 15 69 65 l58 75 45 -91 c27 -55 51 -92 60 -92 22 0 15 28 -31 125 l-40 85 33 27 c25 20 30 30 21 39 -9 9 -19 7 -46 -10 l-34 -21 -10 23 c-6 12 -29 46 -52 75 -39 49 -63 63 -75 43z"/>
 <path d="M5520 2093 c-18 -27 -35 -50 -37 -52 -2 -3 -16 11 -32 30 -23 27 -32 31 -42 22 -10 -10 -6 -21 16 -54 l29 -41 -29 -56 c-16 -31 -49 -82 -72 -114 -37 -50 -41 -59 -26 -65 21 -8 72 48 116 129 18 32 35 58 39 58 3 0 14 -19 23 -43 9 -24 27 -57 40 -73 41 -51 41 -6 0 84 l-37 81 37 60 c33 53 39 81 16 81 -4 0 -23 -21 -41 -47z"/>
 <path d="M3363 1227 c-17 -28 102 -67 292 -97 72 -11 283 -41 470 -65 187 -24 448 -58 580 -76 177 -23 265 -30 335 -27 96 5 145 19 137 41 -4 12 -13 12 -132 2 -73 -7 -339 25 -1340 161 -66 9 -169 28 -228 44 -69 17 -110 24 -114 17z"/>
 </g>

</svg>